<svg xmlns="http://www.w3.org/2000/svg" viewBox="-134.50 -847.50 4626.60 1148.64"><g fill="#F5F1E8" transform="scale(1,-1)"><path d="M33.0 0.0H227.0V19.0L141.0 28.450550079345703V563.0L510.0 -5.0H548.0V-4.0H606.0V16.0Q588.0 18.0 556.0 26.0H548.0V635.8974609375L619.0 645.0V664.0H429.0V645.0L519.0 635.425537109375V170.8468475341797L197.0 664.0H33.0V645.0L91.0 638.0L112.0 605.8571166992188V28.294116973876953L33.0 19.0Z"/><path transform="translate(608,0) scale(1)" d="M34.0 0.0V19.0L138.0 32.0H187.0L291.0 19.0V0.0ZM107.0 0.0Q109.0 40.0 110.0 93.0Q111.0 146.0 111.0 203.5Q111.0 261.0 111.0 313.0V357.0Q111.0 409.0 111.0 465.0Q111.0 521.0 110.0 572.5Q109.0 624.0 107.0 664.0H219.0Q217.0 624.0 216.0 572.0Q215.0 520.0 214.5 464.5Q214.0 409.0 214.0 357.0V313.0Q214.0 261.0 214.5 203.5Q215.0 146.0 216.0 93.0Q217.0 40.0 219.0 0.0ZM161.0 326.0V352.0H535.0V326.0ZM404.0 0.0V19.0L508.0 32.0H557.0L661.0 19.0V0.0ZM477.0 0.0Q479.0 40.0 480.0 93.0Q481.0 146.0 481.0 203.5Q481.0 261.0 481.0 313.0V357.0Q481.0 409.0 481.0 465.0Q481.0 521.0 480.0 572.5Q479.0 624.0 477.0 664.0H589.0Q587.0 624.0 586.0 572.0Q585.0 520.0 585.0 464.5Q585.0 409.0 585.0 357.0V313.0Q585.0 261.0 585.0 203.5Q585.0 146.0 586.0 93.0Q587.0 40.0 589.0 0.0ZM34.0 645.0V664.0H291.0V645.0L187.0 632.0H138.0ZM404.0 645.0V664.0H661.0V645.0L557.0 632.0H508.0Z"/><path transform="translate(1276,0) scale(1)" d="M349.0 -16.0Q396.0 -16.0 443.5 -3.5Q470.24786376953125 3.5389153957366943 494.61749267578125 14.541513442993164L531.0 34.95121765136719V84.0Q531.0 148.0 532.5 207.0Q533.31591796875 239.09210205078125 534.5755615234375 270.0H534.1807861328125V357.0H350.0V339.0L432.38360595703125 329.0571594238281Q432.56256103515625 325.042236328125 432.7315368652344 321.0H432.814453125V285.0002136230469H432.7315368652344Q432.7733154296875 284.00048828125 432.814453125 283.0002136230469V281.0H432.8960266113281Q434.35894775390625 244.8224639892578 435.0 207.0Q436.0 148.0 436.0 84.0V21.965900421142578Q419.81500244140625 15.845481872558594 404.0 12.5Q378.0 7.0 355.0 7.0Q295.0 7.0 249.5 42.5Q204.0 78.0 179.0 150.0Q154.0 222.0 154.0 331.0Q154.0 440.0 182.0 512.0Q210.0 584.0 257.0 620.5Q304.0 657.0 359.0 657.0Q392.0 657.0 427.0 647.0Q436.21875 644.3660888671875 445.5068359375 640.4833984375L512.0 479.0H531.0L520.0 635.0Q494.0 653.0 464.5 662.5Q435.0 672.0 405.5 676.0Q376.0 680.0 353.0 680.0Q290.0 680.0 234.0 657.5Q178.0 635.0 135.0 590.5Q92.0 546.0 67.0 481.5Q42.0 417.0 42.0 332.0Q42.0 247.0 65.0 182.5Q88.0 118.0 129.0 73.5Q170.0 29.0 226.5 6.5Q283.0 -16.0 349.0 -16.0Z"/><path transform="translate(2034.52,0) scale(0.52)" d="M38.0 0.0V17.0L142.0 29.0H175.0V0.0ZM115.0 0.0Q117.0 40.0 118.0 93.5Q119.0 147.0 119.5 204.5Q120.0 262.0 120.0 315.0V359.0Q120.0 411.0 119.5 467.5Q119.0 524.0 118.0 576.0Q117.0 628.0 115.0 668.0H204.0Q202.0 628.0 201.0 576.0Q200.0 524.0 200.0 467.5Q200.0 411.0 200.0 359.0V315.0Q200.0 262.0 200.0 204.5Q200.0 147.0 201.0 93.5Q202.0 40.0 204.0 0.0ZM160.0 0.0V24.0H450.0L412.0 12.0L475.0 190.0H492.0L480.0 0.0ZM38.0 651.0V668.0H281.0V651.0L177.0 639.0H142.0Z"/><path transform="translate(2034.52,0) scale(0.52)" d="M670.0 -12.0Q620.0 -12.0 586.5 16.5Q553.0 45.0 553.0 100.0Q553.0 129.0 564.5 154.5Q576.0 180.0 608.0 203.0Q640.0 226.0 702.0 245.0Q717.0 251.0 737.5 257.0Q758.0 263.0 785.5 270.5Q813.0 278.0 847.0 285.0V269.0Q798.0 254.0 767.5 244.0Q737.0 234.0 722.0 228.0Q683.0 211.0 663.5 192.5Q644.0 174.0 637.5 155.5Q631.0 137.0 631.0 119.0Q631.0 76.0 652.0 57.5Q673.0 39.0 704.0 39.0Q726.0 39.0 744.0 44.0Q762.0 49.0 783.0 63.0Q804.0 77.0 833.0 105.0L841.0 67.0H811.0Q790.0 39.0 767.5 21.0Q745.0 3.0 720.5 -4.5Q696.0 -12.0 670.0 -12.0ZM885.0 -9.0Q846.0 -9.0 826.0 12.5Q806.0 34.0 804.0 74.0V76.0V309.0Q804.0 358.0 795.0 386.5Q786.0 415.0 766.5 427.0Q747.0 439.0 715.0 439.0Q697.0 439.0 679.5 434.5Q662.0 430.0 643.0 423.0L671.0 443.0L654.0 364.0Q650.0 341.0 637.5 329.0Q625.0 317.0 607.0 317.0Q590.0 317.0 581.0 327.0Q572.0 337.0 570.0 355.0Q580.0 405.0 628.0 435.0Q676.0 465.0 743.0 465.0Q791.0 465.0 821.5 448.5Q852.0 432.0 866.5 396.5Q881.0 361.0 881.0 305.0V82.0Q881.0 53.0 889.5 42.0Q898.0 31.0 911.0 31.0Q924.0 31.0 932.5 37.0Q941.0 43.0 954.0 56.0L964.0 48.0Q954.0 23.0 935.0 7.0Q916.0 -9.0 885.0 -9.0Z"/><path transform="translate(2034.52,0) scale(0.52)" d="M1172.0 -4.0 1012.0 453.0H1101.0L1221.0 76.0H1203.0L1208.0 89.0L1329.0 453.0H1365.0L1493.0 76.0H1475.0L1479.0 89.0L1598.0 453.0H1627.0L1472.0 -4.0H1444.0L1315.0 368.0H1328.0L1325.0 359.0L1200.0 -4.0ZM973.0 436.0V453.0H1175.0V437.0L1088.0 424.0H1059.0ZM1252.0 437.0V453.0H1444.0V437.0L1367.0 427.0L1328.0 428.0ZM1522.0 437.0V453.0H1668.0V436.0L1608.0 428.0H1596.0Z"/><path transform="translate(2034.52,0) scale(0.52)" d="M2222.0 -16.0Q2152.0 -16.0 2096.0 8.0Q2040.0 32.0 2000.0 77.5Q1960.0 123.0 1938.5 188.0Q1917.0 253.0 1917.0 335.0Q1917.0 416.0 1940.5 480.5Q1964.0 545.0 2005.5 590.5Q2047.0 636.0 2102.5 660.0Q2158.0 684.0 2223.0 684.0Q2244.0 684.0 2272.5 680.5Q2301.0 677.0 2331.5 667.0Q2362.0 657.0 2390.0 638.0L2400.0 482.0H2383.0L2321.0 650.0L2369.0 642.0L2373.0 613.0Q2334.0 643.0 2297.0 653.0Q2260.0 663.0 2226.0 663.0Q2167.0 663.0 2116.5 625.0Q2066.0 587.0 2036.0 513.5Q2006.0 440.0 2006.0 333.0Q2006.0 226.0 2032.5 153.0Q2059.0 80.0 2108.0 43.0Q2157.0 6.0 2224.0 6.0Q2251.0 6.0 2281.0 12.5Q2311.0 19.0 2342.0 35.0L2322.0 18.0V87.0Q2322.0 152.0 2321.0 209.0Q2320.0 266.0 2318.0 319.0H2402.0Q2400.0 266.0 2399.0 209.0Q2398.0 152.0 2398.0 87.0V35.0Q2358.0 10.0 2312.5 -3.0Q2267.0 -16.0 2222.0 -16.0ZM2225.0 302.0V319.0H2459.0V302.0L2376.0 290.0H2346.0Z"/><path transform="translate(2034.52,0) scale(0.52)" d="M2506.0 0.0V17.0L2600.0 29.0H2627.0L2732.0 17.0V0.0ZM2573.0 0.0Q2575.0 23.0 2575.5 61.0Q2576.0 99.0 2576.5 139.0Q2577.0 179.0 2577.0 212.0V255.0Q2577.0 284.0 2576.5 306.5Q2576.0 329.0 2575.5 348.5Q2575.0 368.0 2574.0 389.0L2502.0 405.0V420.0L2644.0 465.0L2653.0 457.0V308.0V305.0V212.0Q2653.0 179.0 2653.5 139.0Q2654.0 99.0 2655.0 61.0Q2656.0 23.0 2657.0 0.0ZM2646.0 256.0 2634.0 311.0H2648.0Q2665.0 363.0 2687.5 396.5Q2710.0 430.0 2737.5 447.5Q2765.0 465.0 2796.0 465.0Q2820.0 465.0 2837.0 454.5Q2854.0 444.0 2860.0 421.0Q2858.0 396.0 2841.5 382.5Q2825.0 369.0 2804.0 369.0Q2787.0 369.0 2773.0 377.0Q2759.0 385.0 2746.0 400.0L2723.0 426.0L2760.0 430.0Q2728.0 416.0 2695.0 370.5Q2662.0 325.0 2646.0 256.0Z"/><path transform="translate(2034.52,0) scale(0.52)" d="M3117.0 -12.0Q3059.0 -12.0 3011.5 15.0Q2964.0 42.0 2935.5 94.5Q2907.0 147.0 2907.0 225.0Q2907.0 302.0 2936.0 355.5Q2965.0 409.0 3012.5 437.0Q3060.0 465.0 3117.0 465.0Q3174.0 465.0 3222.0 438.0Q3270.0 411.0 3298.5 358.5Q3327.0 306.0 3327.0 228.0Q3327.0 152.0 3298.0 97.5Q3269.0 43.0 3221.0 15.5Q3173.0 -12.0 3117.0 -12.0ZM3117.0 9.0Q3156.0 9.0 3184.5 34.0Q3213.0 59.0 3228.0 107.5Q3243.0 156.0 3243.0 228.0Q3243.0 300.0 3228.0 347.5Q3213.0 395.0 3184.5 419.0Q3156.0 443.0 3117.0 443.0Q3078.0 443.0 3049.0 418.5Q3020.0 394.0 3004.5 345.0Q2989.0 296.0 2989.0 225.0Q2989.0 154.0 3004.5 106.0Q3020.0 58.0 3049.0 33.5Q3078.0 9.0 3117.0 9.0Z"/><path transform="translate(2034.52,0) scale(0.52)" d="M3576.0 -12.0Q3518.0 -12.0 3486.0 22.0Q3454.0 56.0 3455.0 132.0V428.0L3477.0 398.0L3388.0 417.0V432.0L3526.0 465.0L3535.0 457.0L3531.0 330.0V145.0Q3531.0 83.0 3550.0 61.5Q3569.0 40.0 3610.0 40.0Q3633.0 40.0 3655.0 48.5Q3677.0 57.0 3700.5 73.5Q3724.0 90.0 3748.0 113.0L3755.0 94.0H3750.0Q3731.0 68.0 3704.0 43.0Q3677.0 18.0 3644.5 3.0Q3612.0 -12.0 3576.0 -12.0ZM3740.0 -10.0V89.0V92.0V403.0L3670.0 417.0V432.0L3812.0 465.0L3820.0 457.0L3816.0 330.0V26.0L3881.0 17.0V0.0Z"/><path transform="translate(2034.52,0) scale(0.52)" d="M3938.0 -257.0V-240.0L4032.0 -228.0H4057.0L4162.0 -240.0V-257.0ZM4005.0 -257.0Q4007.0 -234.0 4007.5 -196.5Q4008.0 -159.0 4008.5 -118.5Q4009.0 -78.0 4009.0 -46.0V255.0Q4009.0 284.0 4008.5 306.5Q4008.0 329.0 4007.5 348.5Q4007.0 368.0 4006.0 389.0L3934.0 405.0V420.0L4076.0 465.0L4085.0 457.0V373.0V369.0V77.0V73.0V-46.0Q4085.0 -78.0 4085.5 -118.5Q4086.0 -159.0 4087.0 -196.5Q4088.0 -234.0 4089.0 -257.0ZM4215.0 -12.0Q4187.0 -12.0 4161.5 -3.0Q4136.0 6.0 4113.5 27.0Q4091.0 48.0 4072.0 81.0H4059.0L4066.0 105.0Q4101.0 63.0 4130.0 46.5Q4159.0 30.0 4198.0 30.0Q4234.0 30.0 4261.5 52.5Q4289.0 75.0 4306.0 120.0Q4323.0 165.0 4323.0 232.0Q4323.0 332.0 4286.5 378.0Q4250.0 424.0 4196.0 424.0Q4170.0 424.0 4147.5 413.0Q4125.0 402.0 4105.5 382.0Q4086.0 362.0 4069.0 335.0L4063.0 363.0H4076.0Q4091.0 393.0 4112.0 415.5Q4133.0 438.0 4161.0 451.5Q4189.0 465.0 4223.0 465.0Q4273.0 465.0 4314.0 439.5Q4355.0 414.0 4379.5 363.5Q4404.0 313.0 4404.0 237.0Q4404.0 158.0 4378.0 102.0Q4352.0 46.0 4309.5 17.0Q4267.0 -12.0 4215.0 -12.0Z"/></g></svg>